{
  "accessors": [
    {
      "bufferView": 2,
      "componentType": 5126,
      "count": 31845,
      "max": [
        0.23629599809646606,
        0.938194990158081,
        0.39251700043678284
      ],
      "min": [
        -0.23451200127601624,
        -0.0,
        -0.3319090008735657
      ],
      "type": "VEC3"
    },
    {
      "bufferView": 2,
      "byteOffset": 382140,
      "componentType": 5126,
      "count": 31845,
      "max": [
        0.9999819993972778,
        0.9999918937683105,
        0.9999911189079285
      ],
      "min": [
        -0.9999600648880005,
        -0.9999951720237732,
        -0.9999976754188538
      ],
      "type": "VEC3"
    },
    {
      "bufferView": 3,
      "componentType": 5126,
      "count": 31845,
      "max": [
        0.9999812841415405,
        0.99998939037323,
        0.9999193549156189,
        1.0
      ],
      "min": [
        -0.9999980926513672,
        -0.999966561794281,
        -0.9999710917472839,
        -1.0
      ],
      "type": "VEC4"
    },
    {
      "bufferView": 1,
      "componentType": 5126,
      "count": 31845,
      "max": [
        0.9995999932289124,
        0.9995989799499512
      ],
      "min": [
        0.00039999998989515007,
        0.00040099999750964344
      ],
      "type": "VEC2"
    },
    {
      "bufferView": 1,
      "byteOffset": 254760,
      "componentType": 5126,
      "count": 31845,
      "max": [
        0.9995999932289124,
        0.9995989799499512
      ],
      "min": [
        0.00039999998989515007,
        0.00040099999750964344
      ],
      "type": "VEC2"
    },
    {
      "bufferView": 1,
      "byteOffset": 509520,
      "componentType": 5126,
      "count": 31845,
      "max": [
        0.9995999932289124,
        0.9995989799499512
      ],
      "min": [
        0.00039999998989515007,
        0.00040099999750964344
      ],
      "type": "VEC2"
    },
    {
      "bufferView": 0,
      "componentType": 5125,
      "count": 150000,
      "type": "SCALAR"
    }
  ],
  "asset": {
    "extras": {
      "author": "alterego.visual (https://sketchfab.com/alterego.visual)",
      "license": "CC-BY-4.0 (http://creativecommons.org/licenses/by/4.0/)",
      "source": "https://sketchfab.com/3d-models/tuyul-56561e49dc8f433e83bdf599de65b183",
      "title": "Tuyul"
    },
    "generator": "Sketchfab-16.95.0",
    "version": "2.0"
  },
  "bufferViews": [
    {
      "buffer": 0,
      "byteLength": 600000,
      "name": "floatBufferViews",
      "target": 34963
    },
    {
      "buffer": 0,
      "byteLength": 764280,
      "byteOffset": 600000,
      "byteStride": 8,
      "name": "floatBufferViews",
      "target": 34962
    },
    {
      "buffer": 0,
      "byteLength": 764280,
      "byteOffset": 1364280,
      "byteStride": 12,
      "name": "floatBufferViews",
      "target": 34962
    },
    {
      "buffer": 0,
      "byteLength": 509520,
      "byteOffset": 2128560,
      "byteStride": 16,
      "name": "floatBufferViews",
      "target": 34962
    }
  ],
  "buffers": [
    {
      "byteLength": 2638080,
      "uri": "scene.bin"
    }
  ],
  "images": [
    {
      "uri": "textures/Material.002_baseColor.png"
    },
    {
      "uri": "textures/Material.002_metallicRoughness.png"
    },
    {
      "uri": "textures/Material.002_normal.png"
    }
  ],
  "materials": [
    {
      "doubleSided": true,
      "name": "Material.002",
      "normalTexture": {
        "index": 2
      },
      "pbrMetallicRoughness": {
        "baseColorTexture": {
          "index": 0
        },
        "metallicRoughnessTexture": {
          "index": 1
        }
      }
    }
  ],
  "meshes": [
    {
      "name": "material_Material.002_0",
      "primitives": [
        {
          "attributes": {
            "NORMAL": 1,
            "POSITION": 0,
            "TANGENT": 2,
            "TEXCOORD_0": 3,
            "TEXCOORD_1": 4,
            "TEXCOORD_2": 5
          },
          "indices": 6,
          "material": 0,
          "mode": 4
        }
      ]
    }
  ],
  "nodes": [
    {
      "children": [
        1
      ],
      "matrix": [
        1.0,
        0.0,
        0.0,
        0.0,
        0.0,
        2.220446049250313e-16,
        -1.0,
        0.0,
        0.0,
        1.0,
        2.220446049250313e-16,
        0.0,
        0.0,
        0.0,
        0.0,
        1.0
      ],
      "name": "Sketchfab_model"
    },
    {
      "children": [
        2
      ],
      "matrix": [
        0.009999999776482582,
        0.0,
        0.0,
        0.0,
        0.0,
        0.0,
        0.009999999776482582,
        0.0,
        0.0,
        -0.009999999776482582,
        0.0,
        0.0,
        0.0,
        0.0,
        0.0,
        1.0
      ],
      "name": "2ff97a58b0884d478a2e93d81a491e6d.fbx"
    },
    {
      "children": [
        3
      ],
      "name": "RootNode"
    },
    {
      "children": [
        4
      ],
      "matrix": [
        100.0,
        0.0,
        0.0,
        0.0,
        0.0,
        99.99999999999972,
        -7.5497901264043296e-06,
        0.0,
        0.0,
        7.5497901264043296e-06,
        99.99999999999972,
        0.0,
        0.0,
        0.0,
        0.0,
        1.0
      ],
      "name": "material"
    },
    {
      "mesh": 0,
      "name": "material_Material.002_0"
    }
  ],
  "samplers": [
    {
      "magFilter": 9729,
      "minFilter": 9987,
      "wrapS": 10497,
      "wrapT": 10497
    }
  ],
  "scene": 0,
  "scenes": [
    {
      "name": "Sketchfab_Scene",
      "nodes": [
        0
      ]
    }
  ],
  "textures": [
    {
      "sampler": 0,
      "source": 0
    },
    {
      "sampler": 0,
      "source": 1
    },
    {
      "sampler": 0,
      "source": 2
    }
  ]
}
